<?xml version="1.0" encoding="UTF-8" standalone="no"?>

<svg
  xmlns="http://www.w3.org/2000/svg"
  xmlns:svg="http://www.w3.org/2000/svg"
  xmlns:rdf="http://www.w3.org/1999/02/22-rdf-syntax-ns#"
  xmlns:cc="http://creativecommons.org/ns#"
  xmlns:dc="http://purl.org/dc/elements/1.1/"
  width="128"
  height="128"
  viewbox="0 0 128 128"
  preserveAspectRatio="xMidYMid meet"
>
  <title id="swirl_title">swirl</title>
  <metadata id="swirl_metadata">
    <rdf:RDF>
      <cc:Work rdf:about="">
        <dc:title>torii</dc:title>
        <dc:date>2025-05-22</dc:date>
        <dc:creator>
          <cc:Agent>
            <dc:title>Timothy Rezendes</dc:title>
          </cc:Agent>
        </dc:creator>
        <dc:subject>
          <rdf:Bag>
            <rdf:li>swirl</rdf:li>
            <rdf:li>colors</rdf:li>
            <rdf:li>nova</rdf:li>
            <rdf:li>logo</rdf:li>
          </rdf:Bag>
        </dc:subject>
        <dc:description>A swirl of color composed of the pink, purple, and blue of the Bi Pride flag.</dc:description>
      </cc:Work>
    </rdf:RDF>
  </metadata>
  <defs>
    <style>
      #pink {
        stroke: rgb(214, 2, 112);
        fill: rgb(214, 2, 112);
      }
      
      #purple {
        stroke: rgb(155, 79, 150);
        fill: rgb(155, 79, 150);
      }
      
      #blue {
        stroke: rgb(0, 56, 168);
        fill: rgb(0, 56, 168);
      }
    </style>
    <line id="divider" x1="64" y1="64" x2="64" y2="192" stroke="#000000" stroke-width="1" />
  </defs>
  <rect id="background" x="0" y="0" width="128" height="128" fill="#ff99dd" />
  <!-- <g id="swirl">
    <path
      id="blue"
      d="
        M 64 64
        C 10 13 80 -30 152 0
        Z
      "
    />
    <path
      id="purple"
      d="
        M 64 64
        C 0 -6 250 70 68 167
        Z
      "
    />
  </g> -->
  <g id="pinwheel">
    <use href="#divider" />
    <use href="#divider" transform="rotate(120 64 64)" />
    <use href="#divider" transform="rotate(240 64 64)" />
    <path
      id="blue"
      d="
        M 64 64
        L 128 28
        L 138 28
        L 138 -10
        L -10 -10
        L -10 28
        L 0 28
        Z
      "
    />
    <path
      id="purple"
      d="
        M 64 64
        L 128 28
        L 138 28
        L 138 138
        L 64 138
        Z
      "
    />
    <path
      id="pink"
      d="
        M 64 64
        L 0 28
        L -10 28
        L -10 138
        L 64 138
        Z
      "
    />
  </g>
</svg>
